
<svg xmlns="http://www.w3.org/2000/svg" version="1.1" xmlns:xlink="http://www.w3.org/1999/xlink" preserveAspectRatio="none" x="0px" y="0px" width="20px" height="20px" viewBox="0 0 20 20">
<defs>
<g id="Layer0_0_FILL">
<path fill="#FFFFFF" stroke="none" d="
M 3.5 19
L 3.5 20 16.55 20 16.55 19 3.5 19
M 4.55 17.9
L 4.55 18.55 15.55 18.55 15.55 17.9 4.55 17.9
M 10.6 12.05
Q 10.7 12.1 10.75 12.25
L 10.75 17.55 11.25 17.55 11.25 12.55
Q 11.25 11.8 11.5 11.75 11.2 11.45 11.55 11.15 11.4 10.7 11.9 10.3 12.35 10.5 12.35 11 12.5 11.1 12.55 11.45
L 12.5 17.55 13.1 17.45 13.1 11.5
Q 13 11.4 13.1 11.25 13.1 11 13.2 10.85 13 10.5 13.3 10.2 13.1 9.5 13.8 8.9 14.4 9.35 14.3 9.8 14.55 10 14.4 10.35 14.6 10.5 14.55 11
L 14.55 17.55 15.55 17.55 15.55 6.5
Q 15.6 2.95 10.05 0 4.45 2.95 4.55 6.5
L 4.55 17.55 5.55 17.55 5.55 11
Q 5.55 10.5 5.75 10.35 5.55 10 5.85 9.8 5.75 9.35 6.25 8.9 7.05 9.5 6.8 10.2 7.15 10.5 6.85 10.85 7 11 7.05 11.25 7.05 11.4 7.05 11.5
L 7.05 17.55 7.5 17.55 7.5 11.3
Q 7.55 11.1 7.8 11 7.8 10.5 8.15 10.3 8.65 10.7 8.6 11.15 8.9 11.45 8.65 11.75 8.9 11.8 8.9 12.6
L 8.9 13.35
Q 8.9 13.5 8.9 13.7
L 8.9 17.55 9.4 17.55 9.4 12.25
Q 9.4 12.1 9.55 12.05 9.3 11.65 9.65 11.45 9.65 10.95 10.05 10.7 10.45 10.95 10.4 11.45 10.85 11.65 10.6 12.05
M 10.2 2.85
L 10.4 2.85
Q 10.4 2.75 10.45 2.75
L 10.55 2.85 10.55 2.95 10.45 3.05 10.4 3.05 10.4 3.2 10.45 3.2 10.6 3.35
Q 10.6 3.4 10.55 3.4
L 10.45 3.5
Q 10.4 3.5 10.4 3.4
L 10.2 3.4
Q 10.1 3.4 10.1 3.5
L 10.2 3.55
Q 10.2 3.6 10.1 3.6
L 10.05 3.7 9.95 3.6 9.95 3.5
Q 9.95 3.4 9.9 3.4
L 9.75 3.4 9.65 3.5
Q 9.6 3.5 9.6 3.4 9.55 3.4 9.55 3.35
L 9.65 3.2 9.65 3.05 9.55 2.9
Q 9.55 2.85 9.6 2.85 9.6 2.75 9.65 2.75
L 9.75 2.85 9.9 2.85 9.95 2.75 9.95 2.55 10.05 2.45 10.2 2.6 10.2 2.7 10.1 2.7 10.1 2.75 10.2 2.85
M 10.55 1.75
Q 11 1.75 11.2 2.05 10.75 1.9 10.45 1.95 10.35 1.75 10.05 1.65 9.8 1.75 9.65 1.95 9.3 1.9 8.95 2.05 9.1 1.75 9.6 1.75 9.65 1.45 10.05 1.15 10.45 1.45 10.55 1.75
M 12.45 3.25
L 12.45 3.35
Q 12.5 3.4 12.45 3.4
L 12.35 3.5 12.35 3.55
Q 12.35 3.6 12.45 3.6
L 12.45 3.7 12.5 3.7
Q 12.55 3.7 12.55 3.75
L 12.55 3.85
Q 12.55 3.9 12.5 3.9
L 12.45 3.9 12.35 3.85 12.3 3.85 12.2 3.9 12.2 4.05 12.3 4.05 12.3 4.2 12.2 4.2
Q 12.15 4.3 12.05 4.2
L 12.05 4.05
Q 12 4 11.9 4
L 11.85 4 11.7 4.15 11.65 4.15 11.55 4.05
Q 11.55 4 11.55 3.9
L 11.65 3.85
Q 11.7 3.75 11.65 3.75
L 11.65 3.7 11.55 3.7 11.5 3.6
Q 11.4 3.6 11.4 3.55
L 11.4 3.5
Q 11.5 3.5 11.55 3.5 11.55 3.4 11.65 3.5
L 11.7 3.5
Q 11.8 3.5 11.8 3.4
L 11.8 3.1 11.9 3.1 12 3.2 12 3.35 12.05 3.35
Q 12.15 3.4 12.2 3.4
L 12.2 3.35 12.3 3.35
Q 12.3 3.25 12.35 3.25 12.35 3.2 12.45 3.25
M 10.25 4.3
L 10.4 4 10.55 4.35 10.25 5.15 10.25 4.3
M 10.85 4.5
L 11.1 4.3 11.1 4.65 10.45 5.3 10.85 4.5
M 10.2 5.95
L 10.35 5.95 10.4 5.85 10.55 5.85 10.55 6 10.45 6.1 10.4 6.1 10.4 6.3 10.45 6.3 10.55 6.4
Q 10.6 6.4 10.6 6.45 10.6 6.5 10.55 6.5
L 10.35 6.5
Q 10.35 6.45 10.25 6.45
L 10.2 6.5
Q 10.1 6.5 10.1 6.6
L 10.2 6.6 10.2 6.65
Q 10.2 6.75 10.1 6.75
L 10.05 6.8 9.95 6.75 9.95 6.6
Q 9.95 6.5 9.9 6.5 9.9 6.45 9.8 6.45
L 9.75 6.5 9.6 6.5
Q 9.55 6.5 9.55 6.45 9.55 6.4 9.6 6.4
L 9.65 6.3 9.65 6.1 9.6 6
Q 9.55 6 9.55 5.95
L 9.6 5.85 9.75 5.85 9.75 5.95 9.9 5.95 9.95 5.85 9.95 5.65 10.1 5.65
Q 10.2 5.65 10.2 5.7
L 10.1 5.8 10.1 5.85 10.2 5.95
M 10.85 5.5
L 11.25 4.8 11.55 4.55 11.55 5 10.85 5.5
M 12.05 5.8
L 12.35 5.85 12.05 6.1 11.1 6 12.05 5.8
M 11.7 5.2
L 12.05 5.15 11.85 5.5 11 5.8 11.7 5.2
M 13.75 5
L 13.9 5 13.95 5.05
Q 13.95 5.15 13.9 5.2
L 13.8 5.2 13.8 5.3 13.75 5.3 13.75 5.35 13.95 5.6
Q 13.95 5.65 13.9 5.65
L 13.8 5.7
Q 13.75 5.7 13.75 5.65
L 13.65 5.65
Q 13.65 5.6 13.6 5.6
L 13.5 5.65 13.5 5.85
Q 13.45 5.95 13.35 5.95 13.3 5.95 13.3 5.85 13.2 5.85 13.2 5.8
L 13.3 5.8 13.3 5.7
Q 13.3 5.65 13.2 5.65 13.2 5.6 13.15 5.6
L 13 5.7
Q 12.95 5.7 12.85 5.65
L 12.85 5.5 12.95 5.5 13 5.45 13 5.3 12.95 5.2 12.85 5.2
Q 12.85 5.15 12.85 5.05
L 12.85 5
Q 12.95 5 13 5
L 13.1 5 13.1 5.05 13.2 5.05 13.3 5 13.3 4.95 13.2 4.85 13.3 4.8 13.35 4.8
Q 13.45 4.8 13.5 4.8
L 13.5 5.05 13.65 5.05 13.75 5
M 13.95 7.15
Q 13.95 7.25 13.95 7.3 13.9 7.3 13.8 7.3
L 13.6 7.3
Q 13.5 7.4 13.6 7.45
L 13.6 7.6
Q 13.6 7.7 13.5 7.7 13.45 7.7 13.35 7.7 13.35 7.6 13.35 7.55 13.35 7.45 13.3 7.45
L 13.3 7.4 13.2 7.4
Q 13.15 7.4 13.15 7.45
L 13.1 7.45 13.1 7.55
Q 13 7.55 12.95 7.55
L 12.85 7.45
Q 12.85 7.4 12.95 7.4
L 13 7.25 13 7.15 12.95 7.1 12.85 7.1
Q 12.8 7.05 12.7 7.05 12.7 6.95 12.8 6.95 12.8 6.9 12.85 6.9
L 13 6.9
Q 13.1 6.95 13.1 6.9
L 13.15 6.8 13.15 6.75 13.1 6.65 13.1 6.6 13.15 6.5 13.2 6.5 13.3 6.6 13.3 6.75 13.35 6.8
Q 13.45 6.8 13.5 6.8
L 13.5 6.75 13.6 6.75
Q 13.6 6.65 13.65 6.65
L 13.75 6.65
Q 13.8 6.65 13.8 6.75 13.8 6.8 13.75 6.8
L 13.75 6.95 13.65 6.95 13.65 7.05 13.75 7.1 13.9 7.1 13.9 7.15 13.95 7.15
M 14.55 9
Q 14.4 8.7 14 8.5 14.4 8.1 14.55 7.45
L 14.55 9
M 11.9 6.4
L 12.3 6.6 11.85 6.65 11 6.3 11.9 6.4
M 11.4 7.4
L 11.55 7.7 11.1 7.55 10.7 6.8 11.4 7.4
M 11.8 6.9
L 12.05 7.1 11.65 7.15 10.9 6.65 11.8 6.9
M 10.55 9.15
L 10.55 9.2 10.45 9.3 10.4 9.3 10.4 9.4 10.45 9.4 10.55 9.5
Q 10.6 9.5 10.6 9.55 10.6 9.65 10.55 9.65
L 10.35 9.65
Q 10.35 9.55 10.25 9.55
L 10.2 9.65
Q 10.1 9.65 10.1 9.7
L 10.2 9.7 10.2 9.8
Q 10.2 9.85 10.1 9.85
L 10.05 9.95 9.95 9.85 9.95 9.7
Q 9.95 9.65 9.9 9.65 9.9 9.55 9.8 9.55
L 9.75 9.65 9.6 9.65
Q 9.55 9.65 9.55 9.55 9.55 9.5 9.6 9.5
L 9.65 9.4 9.65 9.3 9.55 9.15
Q 9.55 9.05 9.6 9
L 9.75 9 9.75 9.05 9.9 9.05 9.95 9 9.95 8.75 10.1 8.75
Q 10.2 8.75 10.2 8.85
L 10.1 8.9 10.1 9 10.2 9.05 10.35 9.05 10.4 9 10.55 9
Q 10.55 9.05 10.55 9.15
M 11.05 7.85
L 11.1 8.1 10.75 7.95 10.55 7.1 11.05 7.85
M 10.4 7.95
L 10.35 8.25 10.1 7.95 10.25 7.1 10.4 7.95
M 12.15 8.1
L 12.2 8.1
Q 12.3 8.1 12.3 8.2
L 12.3 8.4
Q 12.2 8.4 12.3 8.5
L 12.5 8.5
Q 12.55 8.5 12.55 8.55
L 12.55 8.7 12.45 8.7 12.45 8.75 12.35 8.75 12.35 8.85 12.45 8.9 12.45 9 12.5 9 12.5 9.05
Q 12.5 9.15 12.45 9.15
L 12.3 9.15 12.3 9.05 12.2 9
Q 12.15 9 12.05 9
L 12.05 9.2
Q 12 9.2 11.9 9.3
L 11.85 9.3
Q 11.8 9.3 11.8 9.2
L 11.8 9.05 11.85 9.05
Q 11.85 9 11.8 8.9
L 11.5 8.9
Q 11.4 8.85 11.4 8.75
L 11.5 8.75
Q 11.5 8.7 11.55 8.7
L 11.65 8.7
Q 11.7 8.7 11.7 8.6
L 11.7 8.55 11.65 8.55 11.65 8.5
Q 11.55 8.4 11.55 8.35 11.65 8.35 11.65 8.25
L 11.7 8.25
Q 11.8 8.25 11.8 8.35
L 11.85 8.4 11.9 8.4
Q 12.05 8.4 12.05 8.35
L 12.05 8.2 12.15 8.1
M 10.4 10.35
Q 10.85 10.35 11.2 10.2
L 10.9 11 10.4 10.35
M 13.1 9.35
L 12.8 10.45 12.3 9.85
Q 12.65 9.65 13.1 9.35
M 7.5 3.85
L 7.5 3.75
Q 7.5 3.7 7.55 3.7
L 7.65 3.7
Q 7.7 3.7 7.7 3.6
L 7.8 3.55
Q 7.7 3.55 7.7 3.5
L 7.65 3.4 7.65 3.35
Q 7.65 3.25 7.7 3.25 7.8 3.2 7.8 3.25 7.85 3.25 7.85 3.35
L 7.95 3.35 7.95 3.4
Q 8 3.4 8 3.35
L 8.1 3.35 8.1 3.2
Q 8.1 3.1 8.15 3.1
L 8.3 3.1 8.35 3.2
Q 8.35 3.25 8.3 3.25
L 8.3 3.4 8.35 3.5 8.5 3.5
Q 8.5 3.4 8.6 3.5
L 8.65 3.5 8.65 3.55
Q 8.65 3.6 8.6 3.6
L 8.45 3.75 8.45 3.85 8.5 3.85 8.5 3.9
Q 8.6 4 8.6 4.05 8.5 4.05 8.5 4.15
L 8.45 4.15
Q 8.35 4.15 8.35 4.05
L 8.3 4.05 8.2 4 8.15 4
Q 8.1 4 8.1 4.05
L 8.1 4.15
Q 8.1 4.2 8 4.2 7.95 4.3 7.95 4.2
L 7.85 4.2 7.85 4
Q 7.95 4 7.85 3.9 7.85 3.85 7.8 3.85
L 7.7 3.85 7.7 3.9
Q 7.65 3.9 7.55 3.9
L 7.5 3.85
M 6.25 5.2
Q 6.1 5.15 6.1 5.05
L 6.25 5 6.4 5 6.4 5.05 6.55 5.05 6.65 5 6.65 4.8 6.8 4.8 6.85 4.85 6.8 4.95 6.8 5 6.85 5.05 7 5.05 7.05 5 7.2 5 7.2 5.05
Q 7.2 5.15 7.2 5.2
L 7.05 5.3 7.05 5.35 7.2 5.5 7.2 5.65
Q 7.2 5.7 7.15 5.7 7.05 5.7 7.05 5.65
L 7 5.65
Q 7 5.6 6.9 5.6 6.85 5.6 6.85 5.65 6.8 5.65 6.8 5.7
L 6.8 5.8 6.85 5.8
Q 6.85 5.85 6.8 5.85 6.8 5.95 6.7 5.95 6.65 5.95 6.65 5.85
L 6.65 5.7
Q 6.65 5.65 6.55 5.65 6.55 5.6 6.5 5.6 6.4 5.6 6.4 5.65
L 6.35 5.65
Q 6.35 5.7 6.25 5.7
L 6.2 5.65
Q 6.1 5.65 6.1 5.6
L 6.2 5.5 6.25 5.5 6.35 5.45 6.35 5.3
Q 6.35 5.2 6.25 5.2
M 9 4.3
L 9.25 4.5 9.6 5.3 9 4.65 9 4.3
M 9.6 4.35
L 9.75 4 9.9 4.3 9.9 5.15 9.6 4.35
M 8.2 5.5
L 8 5.15 8.45 5.2 9.15 5.8 8.2 5.5
M 7.7 5.85
L 8.1 5.8 8.95 6 8.1 6.1 7.7 5.85
M 8.8 4.8
L 9.3 5.5 8.6 5 8.5 4.55 8.8 4.8
M 9.45 6.8
L 8.95 7.55 8.5 7.7 8.65 7.4 9.45 6.8
M 8.2 6.65
L 7.85 6.6 8.15 6.4 9.1 6.3 8.2 6.65
M 8 7.1
L 8.3 6.9 9.25 6.65 8.45 7.15 8 7.1
M 8.5 8.25
L 8.5 8.35
Q 8.5 8.4 8.5 8.5
L 8.45 8.55 8.45 8.6
Q 8.45 8.7 8.5 8.7
L 8.6 8.7 8.6 8.75 8.65 8.75
Q 8.65 8.85 8.65 8.9
L 8.3 8.9
Q 8.2 9 8.2 9.05
L 8.3 9.05 8.3 9.2
Q 8.3 9.3 8.2 9.3
L 8.15 9.3 8.1 9.2 8.1 9.05 8 9 7.95 9
Q 7.85 9 7.85 9.05
L 7.85 9.15 7.7 9.15
Q 7.65 9.15 7.65 9.05
L 7.65 9 7.7 8.9 7.7 8.7 7.55 8.7 7.5 8.6 7.5 8.55 7.55 8.5
Q 7.65 8.5 7.7 8.5
L 7.85 8.5 7.85 8.25
Q 7.8 8.2 7.85 8.2 7.85 8.1 7.95 8.1
L 8 8.1 8 8.25
Q 8.1 8.25 8.1 8.35
L 8.1 8.4
Q 8.15 8.4 8.2 8.4
L 8.35 8.25
Q 8.45 8.25 8.5 8.25
M 9.75 8.25
L 9.65 7.95 9.9 7.1 9.95 7.95 9.75 8.25
M 9.3 7.95
L 8.95 8.1 9 7.85 9.6 7.1 9.3 7.95
M 7 6.65
L 7 6.8
Q 7 6.9 7.05 6.9
L 7.2 6.9
Q 7.3 6.9 7.3 6.95 7.35 6.95 7.35 7.05 7.3 7.05 7.3 7.1
L 7.15 7.1 7.15 7.3 7.2 7.4 7.2 7.45
Q 7.2 7.55 7.15 7.55
L 7.05 7.55 7 7.45
Q 7 7.4 6.9 7.4 6.85 7.4 6.8 7.4
L 6.8 7.45
Q 6.7 7.45 6.7 7.55 6.7 7.6 6.7 7.7
L 6.65 7.7
Q 6.55 7.7 6.55 7.6 6.5 7.55 6.55 7.55
L 6.55 7.45
Q 6.55 7.4 6.55 7.3
L 6.25 7.3
Q 6.2 7.3 6.1 7.3 6.1 7.25 6.1 7.15
L 6.25 7.15 6.25 7.1 6.35 7.1
Q 6.4 7.1 6.4 7.05
L 6.4 6.95 6.35 6.95 6.35 6.65
Q 6.4 6.65 6.5 6.65
L 6.65 6.8 6.7 6.8 6.8 6.75 6.8 6.6 6.85 6.5 6.9 6.5
Q 7 6.5 7 6.6 7.05 6.6 7 6.65
M 6.05 8.5
Q 5.75 8.7 5.55 9
L 5.55 7.45
Q 5.7 8.1 6.05 8.5
M 7.3 10.45
L 7.05 9.35
Q 7.45 9.65 7.85 9.85
L 7.3 10.45
M 8.9 10.2
Q 9.3 10.35 9.75 10.35
L 9.15 11 8.9 10.2 Z"/>
</g>
</defs>

<g transform="matrix( 1, 0, 0, 1, 0,0) ">
<use xlink:href="#Layer0_0_FILL"/>
</g>
</svg>
