
<svg xmlns="http://www.w3.org/2000/svg" version="1.1" xmlns:xlink="http://www.w3.org/1999/xlink" preserveAspectRatio="none" x="0px" y="0px" width="665px" height="84px" viewBox="0 0 665 84">
<defs>
<g id="Layer3_0_FILL">
<path fill="#0097D7" stroke="none" d="
M 661.2 -7.25
L 550.5 -7.25 550.5 187.55 661.2 187.55 661.2 -7.25 Z"/>
</g>

<g id="Layer2_0_FILL">
<path fill="#FFFFFF" stroke="none" d="
M 637.05 8.95
L 622.8 8.95 600.5 77.45 612.85 77.45 618.2 58.95 641.25 58.95 646.55 77.45 659.35 77.45 637.05 8.95
M 629.5 18.4
L 629.9 18.4
Q 631.4 24.05 632.9 29.8 634.4 35.55 636.1 41
L 638.5 49.35 621 49.35 623.4 41
Q 625.1 35.55 626.6 29.85 628.05 24.15 629.5 18.4
M 592.3 8.95
L 580.15 8.95 580.15 54.95
Q 580.15 62.25 577.75 65.2 575.35 68.15 570.55 68.15 567.35 68.15 564.65 66.4 561.95 64.65 559.85 60.9
L 551.45 67.05
Q 554.75 72.85 559.7 75.75 564.65 78.75 571.9 78.75 577.25 78.75 581.1 76.95 585 75.15 587.5 72.1 590 68.95 591.15 64.8 592.3 60.7 592.3 55.95
L 592.3 8.95
M 515.9 13.4
Q 512.55 11.05 507.95 10 503.35 8.95 498 8.95
L 474.85 8.95 474.85 77.45 487 77.45 487 50.65 497.45 50.65 512.25 77.45 525.85 77.45 509.5 48.85
Q 515.7 46.75 519.4 41.95 523.1 37.15 523.1 29.3 523.1 23.5 521.2 19.65 519.25 15.75 515.9 13.4
M 487 18.7
L 496.75 18.7
Q 503.75 18.7 507.45 21 511.2 23.3 511.2 29.3 511.2 35.15 507.45 38.05 503.75 41 496.75 41
L 487 41 487 18.7
M 461.05 42.9
Q 461.05 34.6 458.85 28.05 456.65 21.5 452.6 17 448.6 12.5 443.05 10.1 437.5 7.7 430.8 7.7 424.1 7.7 418.55 10.1 413 12.5 409 17 405 21.5 402.8 28.05 400.6 34.6 400.6 42.9 400.6 51.25 402.8 57.85 405 64.45 409 69.1 413 73.75 418.55 76.2 424.1 78.75 430.8 78.75 437.5 78.75 443.05 76.2 448.6 73.75 452.6 69.1 456.65 64.45 458.85 57.85 461.05 51.25 461.05 42.9
M 413.1 42.9
Q 413.1 31.35 417.85 24.85 422.6 18.3 430.8 18.3 438.95 18.3 443.75 24.85 448.5 31.35 448.5 42.9 448.5 48.65 447.25 53.3 446 57.95 443.65 61.3 441.35 64.55 438.15 66.35 434.9 68.15 430.8 68.15 426.7 68.15 423.45 66.35 420.2 64.55 417.9 61.3 415.6 57.95 414.35 53.3 413.1 48.65 413.1 42.9
M 395.9 8.95
L 383.45 8.95 373.9 43.4
Q 372.35 49.25 371.05 54.5 369.75 59.75 367.95 65.75
L 367.55 65.75
Q 365.75 59.75 364.4 54.5 363.15 49.25 361.45 43.4
L 351.85 8.95 338.95 8.95 360.3 77.45 374.65 77.45 395.9 8.95
M 331 47.4
L 331 8.95 319.35 8.95 319.35 48.35
Q 319.35 53.85 318.3 57.7 317.25 61.55 315.35 63.85 313.5 66.15 310.85 67.1 308.25 68.15 305.1 68.15 301.95 68.15 299.45 67.1 296.95 66.15 295.1 63.85 293.25 61.55 292.3 57.7 291.25 53.85 291.25 48.35
L 291.25 8.95 279.15 8.95 279.15 47.4
Q 279.15 55.85 281 61.8 282.8 67.75 286.2 71.45 289.6 75.25 294.4 77 299.15 78.75 305.1 78.75 311.05 78.75 315.85 77 320.6 75.25 324 71.45 327.4 67.75 329.2 61.8 331 55.85 331 47.4
M 265.7 42.9
Q 265.7 34.6 263.5 28.05 261.3 21.5 257.25 17 253.25 12.5 247.7 10.1 242.15 7.7 235.45 7.7 228.75 7.7 223.2 10.1 217.65 12.5 213.65 17 209.65 21.5 207.45 28.05 205.25 34.6 205.25 42.9 205.25 51.25 207.45 57.85 209.65 64.45 213.65 69.1 217.65 73.75 223.2 76.2 228.75 78.75 235.45 78.75 242.15 78.75 247.7 76.2 253.25 73.75 257.25 69.1 261.3 64.45 263.5 57.85 265.7 51.25 265.7 42.9
M 248.4 24.85
Q 253.15 31.35 253.15 42.9 253.15 48.65 251.9 53.3 250.65 57.95 248.3 61.3 246 64.55 242.8 66.35 239.55 68.15 235.45 68.15 231.35 68.15 228.1 66.35 224.85 64.55 222.55 61.3 220.25 57.95 219 53.3 217.75 48.65 217.75 42.9 217.75 31.35 222.5 24.85 227.25 18.3 235.45 18.3 243.6 18.3 248.4 24.85
M 196.9 77.45
L 196.9 67.15 168.4 67.15 168.4 8.95 156.25 8.95 156.25 77.45 196.9 77.45 Z"/>

<path fill="#F8C800" stroke="none" d="
M 109 84.05
L 109 0 0 0 0 84.05 109 84.05 Z"/>
</g>

<g id="Layer1_0_FILL">
<path fill="#0097D7" stroke="none" d="
M 31 12.95
L 12.7 12.95 12.7 64.2 31 64.2 31 12.95
M 31 5.6
L 31 0.4 0.4 0.4 0.4 5.6 31 5.6
M 47.5 46.2
L 59.7 46.2 38.4 12.95 38.4 70.15
Q 38.3 73.5 36.85 76.3 36.75 76.4 36.65 76.5 35.7 78.2 34.2 79.65 30.25 83.65 24.7 83.75
L 83.75 83.75 64.95 54.45 47.5 54.45 47.5 46.2 Z"/>

<path fill="#F8C800" stroke="none" d="
M 12.7 12.95
L 0.4 12.95 0.4 69 0.3 69 0.3 76.4 0.4 76.4 24.65 76.4
Q 25.15 76.4 25.7 76.3 27.6 75.9 29 74.4 30.85 72.6 31 70.15
L 31 64.2 12.7 64.2 12.7 12.95 Z"/>

<path fill="#000000" stroke="none" d="
M 62.85 12.95
L 62.85 5.6 38.4 5.6 38.4 0.4 31 0.4 31 5.6 0.4 5.6 0.4 12.95 12.7 12.95 31 12.95 31 64.2 31 70.15
Q 30.85 72.6 29 74.4 27.6 75.9 25.7 76.3 25.15 76.4 24.65 76.4
L 0.4 76.4 0.4 83.75 23.65 83.75
Q 23.95 83.75 24.2 83.75
L 24.7 83.75
Q 30.25 83.65 34.2 79.65 35.7 78.2 36.65 76.5 36.75 76.4 36.85 76.3 38.3 73.5 38.4 70.15
L 38.4 12.95 62.85 12.95 Z"/>
</g>

<g id="Layer0_0_FILL">
<path fill="#000000" stroke="none" d="
M 114.65 60.85
L 85.5 60.85
Q 84.75 58.7 86.75 57.65 88.2 56.9 92.05 56.6 94.15 56.4 98.65 56 102.3 55.55 103.75 54.45
L 72.6 54.45 72.6 58.4
Q 71.8 57 70.05 57 68.8 57 67.9 57.9 67.05 58.75 67.05 60.05 67.05 60.6 67.15 60.95 67.5 62 68.25 62.5 69.05 63.15 70.05 63.15 71.8 63.15 72.6 61.7
L 72.6 61.85
Q 70.75 64.45 67.9 63.8
L 62.5 61.4 67.15 60.95 46.75 59.7 43.6 56.7 43.6 66.15 46.75 62.9 59.1 61.7 63.65 66.55 109.25 66.5 114.65 60.85
M 86.75 37.4
Q 88.2 36.7 92.05 36.35 94.15 36.2 98.65 35.8 102.3 35.4 103.75 34.25
L 72.6 34.25 72.6 38.15
Q 71.8 36.75 70.05 36.75 68.8 36.75 67.9 37.65 67.05 38.55 67.05 39.8 67.05 40.4 67.15 40.8 67.5 41.75 68.25 42.3 69.05 42.95 70.05 42.95 71.8 42.95 72.6 41.45
L 72.6 41.6
Q 70.75 44.2 67.9 43.6
L 62.5 41.2 67.15 40.8 46.75 39.45 43.6 36.5 43.6 45.95 46.75 42.65 59.1 41.55 63.65 46.3 109.25 46.25 114.65 40.6 85.5 40.6
Q 84.75 38.45 86.75 37.4
M 92.5 16
Q 94.6 15.9 99.1 15.5 102.75 15.05 104.2 13.85
L 73.05 13.85 73.05 17.8
Q 72.2 16.4 70.5 16.4 69.3 16.4 68.35 17.35 67.5 18.2 67.5 19.5 67.5 20.05 67.6 20.4 67.9 21.4 68.7 22 69.5 22.6 70.5 22.6 72.2 22.6 73.05 21.1
L 73.05 21.3
Q 71.15 23.9 68.35 23.25
L 62.95 20.85 67.6 20.4 47.2 19.1 44.05 16.15 44.05 25.6 47.2 22.35 59.55 21.15 64.05 26 109.7 25.95 115.1 20.3 85.9 20.3
Q 85.15 18.15 87.2 17.1 88.65 16.35 92.5 16 Z"/>
</g>
</defs>

<g transform="matrix( 1, 0, 0, 1, 0,0) ">
<use xlink:href="#Layer3_0_FILL"/>
</g>

<g transform="matrix( 1, 0, 0, 1, 0,0) ">
<use xlink:href="#Layer2_0_FILL"/>
</g>

<g transform="matrix( 1, 0, 0, 1, 0,0) ">
<use xlink:href="#Layer1_0_FILL"/>
</g>

<g transform="matrix( 1, 0, 0, 1, 0,0) ">
<use xlink:href="#Layer0_0_FILL"/>
</g>
</svg>
