
<svg xmlns="http://www.w3.org/2000/svg" version="1.1" xmlns:xlink="http://www.w3.org/1999/xlink" preserveAspectRatio="none" x="0px" y="0px" width="665px" height="150px" viewBox="0 0 665 150">
<defs>
<g id="Layer4_0_FILL">
<path fill="#0097D7" stroke="none" d="
M 661.2 -7.25
L 550.5 -7.25 550.5 187.55 661.2 187.55 661.2 -7.25 Z"/>
</g>

<g id="Layer3_0_FILL">
<path fill="#F8C800" stroke="none" d="
M 109 84.05
L 109 0 0 0 0 84.05 109 84.05 Z"/>

<path fill="#FFFFFF" stroke="none" d="
M 196.9 67.15
L 168.4 67.15 168.4 8.95 156.25 8.95 156.25 77.45 196.9 77.45 196.9 67.15
M 257.25 17
Q 253.25 12.5 247.7 10.1 242.15 7.7 235.45 7.7 228.75 7.7 223.2 10.1 217.65 12.5 213.65 17 209.65 21.5 207.45 28.05 205.25 34.6 205.25 42.9 205.25 51.25 207.45 57.85 209.65 64.45 213.65 69.1 217.65 73.75 223.2 76.2 228.75 78.75 235.45 78.75 242.15 78.75 247.7 76.2 253.25 73.75 257.25 69.1 261.3 64.45 263.5 57.85 265.7 51.25 265.7 42.9 265.7 34.6 263.5 28.05 261.3 21.5 257.25 17
M 248.4 24.85
Q 253.15 31.35 253.15 42.9 253.15 48.65 251.9 53.3 250.65 57.95 248.3 61.3 246 64.55 242.8 66.35 239.55 68.15 235.45 68.15 231.35 68.15 228.1 66.35 224.85 64.55 222.55 61.3 220.25 57.95 219 53.3 217.75 48.65 217.75 42.9 217.75 31.35 222.5 24.85 227.25 18.3 235.45 18.3 243.6 18.3 248.4 24.85
M 331 47.4
L 331 8.95 319.35 8.95 319.35 48.35
Q 319.35 53.85 318.3 57.7 317.25 61.55 315.35 63.85 313.5 66.15 310.85 67.1 308.25 68.15 305.1 68.15 301.95 68.15 299.45 67.1 296.95 66.15 295.1 63.85 293.25 61.55 292.3 57.7 291.25 53.85 291.25 48.35
L 291.25 8.95 279.15 8.95 279.15 47.4
Q 279.15 55.85 281 61.8 282.8 67.75 286.2 71.45 289.6 75.25 294.4 77 299.15 78.75 305.1 78.75 311.05 78.75 315.85 77 320.6 75.25 324 71.45 327.4 67.75 329.2 61.8 331 55.85 331 47.4
M 383.45 8.95
L 373.9 43.4
Q 372.35 49.25 371.05 54.5 369.75 59.75 367.95 65.75
L 367.55 65.75
Q 365.75 59.75 364.4 54.5 363.15 49.25 361.45 43.4
L 351.85 8.95 338.95 8.95 360.3 77.45 374.65 77.45 395.9 8.95 383.45 8.95
M 458.85 28.05
Q 456.65 21.5 452.6 17 448.6 12.5 443.05 10.1 437.5 7.7 430.8 7.7 424.1 7.7 418.55 10.1 413 12.5 409 17 405 21.5 402.8 28.05 400.6 34.6 400.6 42.9 400.6 51.25 402.8 57.85 405 64.45 409 69.1 413 73.75 418.55 76.2 424.1 78.75 430.8 78.75 437.5 78.75 443.05 76.2 448.6 73.75 452.6 69.1 456.65 64.45 458.85 57.85 461.05 51.25 461.05 42.9 461.05 34.6 458.85 28.05
M 430.8 18.3
Q 438.95 18.3 443.75 24.85 448.5 31.35 448.5 42.9 448.5 48.65 447.25 53.3 446 57.95 443.65 61.3 441.35 64.55 438.15 66.35 434.9 68.15 430.8 68.15 426.7 68.15 423.45 66.35 420.2 64.55 417.9 61.3 415.6 57.95 414.35 53.3 413.1 48.65 413.1 42.9 413.1 31.35 417.85 24.85 422.6 18.3 430.8 18.3
M 515.9 13.4
Q 512.55 11.05 507.95 10 503.35 8.95 498 8.95
L 474.85 8.95 474.85 77.45 487 77.45 487 50.65 497.45 50.65 512.25 77.45 525.85 77.45 509.5 48.85
Q 515.7 46.75 519.4 41.95 523.1 37.15 523.1 29.3 523.1 23.5 521.2 19.65 519.25 15.75 515.9 13.4
M 487 18.7
L 496.75 18.7
Q 503.75 18.7 507.45 21 511.2 23.3 511.2 29.3 511.2 35.15 507.45 38.05 503.75 41 496.75 41
L 487 41 487 18.7
M 592.3 8.95
L 580.15 8.95 580.15 54.95
Q 580.15 62.25 577.75 65.2 575.35 68.15 570.55 68.15 567.35 68.15 564.65 66.4 561.95 64.65 559.85 60.9
L 551.45 67.05
Q 554.75 72.85 559.7 75.75 564.65 78.75 571.9 78.75 577.25 78.75 581.1 76.95 585 75.15 587.5 72.1 590 68.95 591.15 64.8 592.3 60.7 592.3 55.95
L 592.3 8.95
M 637.05 8.95
L 622.8 8.95 600.5 77.45 612.85 77.45 618.2 58.95 641.25 58.95 646.55 77.45 659.35 77.45 637.05 8.95
M 629.5 18.4
L 629.9 18.4
Q 631.4 24.05 632.9 29.8 634.4 35.55 636.1 41
L 638.5 49.35 621 49.35 623.4 41
Q 625.1 35.55 626.6 29.85 628.05 24.15 629.5 18.4 Z"/>
</g>

<g id="Layer2_0_FILL">
<path fill="#0097D7" stroke="none" d="
M 31 12.95
L 12.7 12.95 12.7 64.2 31 64.2 31 12.95
M 31 5.6
L 31 0.4 0.4 0.4 0.4 5.6 31 5.6
M 47.5 46.2
L 59.7 46.2 38.4 12.95 38.4 70.15
Q 38.3 73.5 36.85 76.3 36.75 76.4 36.65 76.5 35.7 78.2 34.2 79.65 30.25 83.65 24.7 83.75
L 83.75 83.75 64.95 54.45 47.5 54.45 47.5 46.2 Z"/>

<path fill="#F8C800" stroke="none" d="
M 12.7 12.95
L 0.4 12.95 0.4 69 0.3 69 0.3 76.4 0.4 76.4 24.65 76.4
Q 25.15 76.4 25.7 76.3 27.6 75.9 29 74.4 30.85 72.6 31 70.15
L 31 64.2 12.7 64.2 12.7 12.95 Z"/>

<path fill="#000000" stroke="none" d="
M 62.85 12.95
L 62.85 5.6 38.4 5.6 38.4 0.4 31 0.4 31 5.6 0.4 5.6 0.4 12.95 12.7 12.95 31 12.95 31 64.2 31 70.15
Q 30.85 72.6 29 74.4 27.6 75.9 25.7 76.3 25.15 76.4 24.65 76.4
L 0.4 76.4 0.4 83.75 23.65 83.75
Q 23.95 83.75 24.2 83.75
L 24.7 83.75
Q 30.25 83.65 34.2 79.65 35.7 78.2 36.65 76.5 36.75 76.4 36.85 76.3 38.3 73.5 38.4 70.15
L 38.4 12.95 62.85 12.95 Z"/>
</g>

<g id="Layer1_0_FILL">
<path fill="#000000" stroke="none" d="
M 109.25 66.5
L 114.65 60.85 85.5 60.85
Q 84.75 58.7 86.75 57.65 88.2 56.9 92.05 56.6 94.15 56.4 98.65 56 102.3 55.55 103.75 54.45
L 72.6 54.45 72.6 58.4
Q 71.8 57 70.05 57 68.8 57 67.9 57.9 67.05 58.75 67.05 60.05 67.05 60.6 67.15 60.95 67.5 62 68.25 62.5 69.05 63.15 70.05 63.15 71.8 63.15 72.6 61.7
L 72.6 61.85
Q 70.75 64.45 67.9 63.8
L 62.5 61.4 67.15 60.95 46.75 59.7 43.6 56.7 43.6 66.15 46.75 62.9 59.1 61.7 63.65 66.55 109.25 66.5
M 92.05 36.35
Q 94.15 36.2 98.65 35.8 102.3 35.4 103.75 34.25
L 72.6 34.25 72.6 38.15
Q 71.8 36.75 70.05 36.75 68.8 36.75 67.9 37.65 67.05 38.55 67.05 39.8 67.05 40.4 67.15 40.8 67.5 41.75 68.25 42.3 69.05 42.95 70.05 42.95 71.8 42.95 72.6 41.45
L 72.6 41.6
Q 70.75 44.2 67.9 43.6
L 62.5 41.2 67.15 40.8 46.75 39.45 43.6 36.5 43.6 45.95 46.75 42.65 59.1 41.55 63.65 46.3 109.25 46.25 114.65 40.6 85.5 40.6
Q 84.75 38.45 86.75 37.4 88.2 36.7 92.05 36.35
M 85.9 20.3
Q 85.15 18.15 87.2 17.1 88.65 16.35 92.5 16 94.6 15.9 99.1 15.5 102.75 15.05 104.2 13.85
L 73.05 13.85 73.05 17.8
Q 72.2 16.4 70.5 16.4 69.3 16.4 68.35 17.35 67.5 18.2 67.5 19.5 67.5 20.05 67.6 20.4 67.9 21.4 68.7 22 69.5 22.6 70.5 22.6 72.2 22.6 73.05 21.1
L 73.05 21.3
Q 71.15 23.9 68.35 23.25
L 62.95 20.85 67.6 20.4 47.2 19.1 44.05 16.15 44.05 25.6 47.2 22.35 59.55 21.15 64.05 26 109.7 25.95 115.1 20.3 85.9 20.3 Z"/>
</g>

<g id="Layer0_0_FILL">
<path fill="#FFFFFF" stroke="none" d="
M 599.05 111.15
Q 599.4 110.95 599.6 110.6 599.75 110.45 599.85 110.15 600.05 109.8 599.8 109.7 599.6 109.65 599.5 109.25 599.35 108.9 598.95 108.8 598.45 108.95 598.1 109.15 597.7 109.4 597.4 109.8
L 596.25 111.4
Q 596 111.7 595.9 112.1 595.7 112.55 595.9 112.8 596.15 113.1 596.55 113 596.95 112.85 597.45 112.35 597.95 111.8 598.3 111.55 598.65 111.35 599.05 111.15
M 537.75 124.15
Q 537.35 124.5 537.05 124.75 536.75 124.9 536.5 125.25 535.85 125.8 535.25 126.25 534.55 126.8 533.9 127.25 532.85 128.1 531.8 128.85 530.75 129.6 529.6 130.25
L 527.35 131.55
Q 526.9 131.75 526.45 132 525.95 132.2 525.5 132.4 525.2 132.45 524.8 132.55 524.4 132.65 524.15 132.65 523.55 132.55 522.95 132.4 522.4 132.2 522.2 131.95 521.9 131.5 521.75 130.9 521.65 130.35 521.65 129.85
L 521.9 124.35
Q 522 124 521.9 123.55 521.9 123.1 521.7 122.7 521.6 122.35 521.25 122.15 520.95 121.95 520.5 121.95 519.75 121.95 519.05 122.25 518.35 122.6 517.8 122.85 517.1 123.2 516.15 123.85 515.2 124.4 514.5 124.85 512.75 125.95 510.9 127.25 509.05 128.6 507.35 129.8 506.5 130.4 505.6 131.1 504.7 131.85 503.75 132.45
L 504.1 131.95
Q 504.95 130.75 505.85 129.6 506.75 128.4 507.5 127.2 508.4 126 509.2 124.8 510 123.55 510.8 122.25 511.15 121.65 511.45 120.95 511.8 120.25 511.8 119.5 511.8 119.35 511.6 119.05 511.45 118.65 511.2 118.75
L 511.3 118.85
Q 511.35 119 511.4 119.05 511.4 119.25 511.4 119.35 511.35 119.5 511.35 119.7 511.15 120 510.95 120.25 510.8 120.5 510.6 120.75 510.45 121.05 510.2 121.4 510 121.75 509.75 122 509.4 122.65 509 123.2 508.55 123.85 508.1 124.35 507.1 125.8 505.9 127.05 504.75 128.4 503.7 129.8 503.25 130.35 502.75 130.85 502.25 131.35 501.8 131.95 501.45 132.5 501.15 132.9 500.85 133.2 500.55 133.85 500.35 134.1 500.15 134.45 499.95 134.8 499.95 135.2 499.95 135.4 500.1 135.6 500.2 135.8 500.35 136 500.5 136.05 500.6 136.1 500.8 136.15 500.9 136.15 501 136.15 501.05 136.05 501.25 135.9 501.35 135.85 501.55 135.65 501.6 135.65
L 501.8 135.4
Q 502.25 134.85 502.75 134.45 503.25 134.1 503.75 133.65 504.35 133.25 504.95 132.75 505.6 132.3 506.05 131.8
L 508.4 130.05
Q 509.6 129.1 510.9 128.1 512.25 127.05 513.5 126.2 514.55 125.55 515.7 124.8 516.8 124.1 517.9 123.45 518.4 123.2 519.1 122.95 519.75 122.75 520.3 122.7 520.55 122.7 520.7 122.85 520.8 123.05 520.9 123.3 520.95 123.45 520.9 123.85 520.8 124.15 520.8 124.35 520.55 125.3 520.3 126.25 520.05 127.15 519.85 128.2 519.8 128.6 519.75 129.15 519.7 129.8 519.7 130.15 519.7 130.85 519.7 131.55 519.7 132.2 519.95 132.8 520.15 133.2 520.45 133.5 520.75 133.85 521.2 133.95 521.65 134.15 522.15 134.15 522.65 134.15 523.1 134.1 523.75 133.95 524.7 133.65 525.55 133.35 526.3 132.9
L 530.15 130.65
Q 530.75 130.3 531.3 130 531.8 129.65 532.3 129.2 533.25 128.6 534.1 127.95 534.9 127.25 535.75 126.5 536.25 126.05 536.75 125.7 537.25 125.25 537.5 124.9 537.55 124.8 537.75 124.55 537.95 124.15 537.9 124.15
L 537.75 124.15
M 543.45 126.95
Q 543.95 126.9 544.4 126.8
L 548.35 126.3
Q 548.8 126.25 549.3 126.2 549.75 126.05 550.35 126 550.85 125.85 551.35 125.85 551.85 125.8 552.35 125.8 553.35 125.8 554.35 125.75 555.4 125.7 556.35 125.7 556.9 125.7 557.4 125.75 557.95 125.75 558.5 125.75 558.8 125.75 559.05 125.75 559.3 125.7 559.6 125.7 559.75 125.75 560.05 125.7 560.25 125.7 560.1 125.45 559.5 125.35 558.85 125.25 558.2 125.1 557.6 125.1 556.9 125 556.2 124.9 555.45 124.9 554.8 124.85 553.35 124.75 551.95 124.8 550.6 124.85 549.2 124.9 548.05 125 547 125.2 545.85 125.35 544.75 125.45 543.95 125.55 543.1 125.75 542.3 125.8 541.55 126.05 541.1 126.2 540.7 126.4 540.3 126.65 539.9 126.8 539.65 126.95 539.5 127 539.45 127.05 539.7 127.15 539.95 127.2 540.3 127.2 540.55 127.2 540.7 127.2 541.05 127.25 541.3 127.25 541.55 127.25 541.8 127.15 542 127 542.2 127 542.25 126.9 542.5 127 543 127 543.45 126.95
M 503.9 82.55
Q 501.6 81.65 499.1 81.25 496.55 80.9 494.05 80.9 492.5 80.9 490.75 80.95 489 81.1 487.6 81.35 485.95 81.6 484.6 81.75 483.35 81.95 481.85 82.35 480.3 82.65 478.2 83.35 478 83.4 477.8 83.5 474.2 84.6 471.6 85.75 468.95 87 466.35 88.4 462.7 90.3 459.3 92.7 455.8 95.1 452.8 97.8 451.45 99.1 449.95 100.55 448.4 102.1 447.15 103.55 445.65 105.25 444.35 107.25 443.05 109.15 441.95 111.15 441.15 113 440.6 114.75 440 116.6 439.95 118.5 439.95 119.85 440.25 121.05 440.6 122.25 441.2 123.3 441.6 123.7 441.95 124.25 442.35 124.65 442.8 125.1 443.1 125.45 443.55 125.8 443.95 126.05 444.45 126.4 443.55 129.1 443.35 131.95 443.3 134.7 444.1 137.55 445.05 140.6 447.2 142.35 449.35 144.05 452.2 144.8 455.05 145.5 458.15 145.5 460.15 145.5 462.15 145.25 464.1 145 465.8 144.55 469.2 143.75 472.6 142.4 476.1 141.15 479.3 139.6 481.5 138.5 483.75 137.25 485.9 136.05 487.95 134.7 488.2 134.6 488.6 134.4 489 134.2 489.25 133.95 490.05 133.45 490.85 132.8 491.75 132.2 492.6 131.7 494.3 130.55 495.95 129.05 497.55 127.5 499 126
L 502.05 122.95
Q 503.25 121.7 504.35 120.25 505.45 118.8 505.8 118.25 507.05 116.2 507.8 115.15 508.65 114 509 113.25
L 510.6 109.8
Q 511.05 108.8 511.55 107.65 512.05 106.45 512.25 105.45 512.85 103.7 513.1 102 513.5 100.3 513.6 98.5 513.85 95.8 513.3 93.2 512.8 90.7 511.35 88.4 510 86.25 508.1 84.85 507.1 84.1 505.95 83.5 504.95 82.95 503.9 82.55
M 499.95 82.35
Q 502 82.6 503.85 83.4 503.9 83.4 504 83.5 505.1 84 506.25 84.7 507.45 85.45 508.3 86.4 509.45 87.4 510.35 88.7 511.15 90.05 511.7 91.35 512.4 93.1 512.6 94.8 512.85 96.55 512.65 98.4 512.5 100.15 512.25 101.85 511.9 103.5 511.35 105.2 510.45 108.05 509 110.95 507.55 113.8 505.8 116.35
L 503.85 119.15
Q 503.25 119.85 502.7 120.65 502.05 121.25 501.5 121.95
L 496.45 127
Q 495.7 127.7 494.8 128.5 493.9 129.3 493.1 129.85
L 487.4 134
Q 486.4 134.7 485.25 135.3 484.1 135.85 483.05 136.5 481.5 137.45 480 138.2 478.45 139 476.85 139.7 475.25 140.45 473.65 141.15 472 141.8 470.3 142.35 467.35 143.2 464.6 143.7 461.75 144.3 458.7 144.4 457.15 144.4 455.55 144.3 454 144.2 452.45 143.7 451.65 143.45 450.95 143 450.2 142.55 449.5 142.1 448.8 141.6 448.15 141.1 447.55 140.45 447.15 139.85 446.45 138.65 446 137.25 445.65 135.85 445.55 134.55 445.45 133.5 445.5 132.55 445.55 131.6 445.7 130.65 445.85 129.85 446 128.95 446.25 128.15 446.45 127.25 448 127.75 449.55 128.1 451.15 128.35 452.85 128.35 454 128.35 455.2 128.15 456.3 127.95 457.5 127.65 459.65 127.15 461.6 126.5 463.5 125.8 465.6 125.1 466.7 124.55 467.45 124.05 468.2 123.55 469.4 122.95
L 472.25 120.9 471.8 120.8
Q 470.15 121.85 468.55 122.85 466.95 123.7 465.35 124.35 463.45 125.25 461.5 125.8 459.55 126.4 457.5 126.9 456.3 127.2 455.25 127.4 454.1 127.6 453.05 127.6 452.1 127.6 451.2 127.5 450.4 127.45 449.5 127.25 448.8 127.15 448.05 126.95 447.4 126.75 446.75 126.5 446.95 125.85 447.2 125.3 447.45 124.75 447.8 124.1 448.1 123.35 448.55 122.6 449 121.75 449.35 120.95 449.7 120.3 450.05 119.6 450.45 118.85 450.9 118.25 451.95 116.7 453.2 115.15 454.4 113.5 455.6 112.4 455.95 112.1 456.25 111.8 456.55 111.4 456.75 111 457.35 110.25 457.6 109.95 457.85 109.65 458.1 109.45 460.15 107.3 462.4 105.35 464.55 103.3 466.95 101.65
L 469.4 99.65 472.5 97.7
Q 473.5 97.1 474.65 96.5 475.75 95.9 476.95 95.4 479.5 94.35 482.05 93.7 484.55 93.1 487.2 93.1 488.65 93.1 489.6 93.85 490.5 94.6 490.95 95.75 491 96.05 491 96.8 490.95 97.65 490.75 98 490.25 99.25 489.4 100.4 488.6 101.55 488.1 102.1 487.6 102.8 486.85 103.5 486.05 104.2 485.1 104.75 484.6 105.1 483.8 105.6 483 106.05 482.4 106.3 482.7 106.35 483.5 106.15 484.1 105.85 484.8 105.45 485.8 104.9 486.95 103.95 488.05 103.05 488.85 102.2 489.1 101.75 489.55 101.25 490 100.65 490.5 100.05 490.95 99.25 491.3 98.6 491.65 97.9 491.95 97.3 492.25 96.6 492.35 95.9 492.4 95.15 492.2 94.6 492 94.1 491.75 93.7 491.5 93.35 491.2 93.2 490.45 92.65 489.6 92.45 488.85 92.25 487.9 92.25 486.75 92.2 485.55 92.3 484.3 92.45 483.25 92.7 481.8 93.1 480.4 93.5 479.05 93.95 477.75 94.55 476.9 94.85 476.1 95.15 475.25 95.55 474.5 95.85
L 469.95 98.25
Q 468.8 98.95 467.8 99.65 466.85 100.35 465.85 101.1
L 464.35 102.1
Q 463.15 103 462.05 103.95 460.95 104.9 459.85 105.85 458.45 107 457.2 108.2 455.85 109.4 454.6 110.7
L 452.4 113.3
Q 451.85 113.8 451.3 114.5 450.9 115.15 450.4 115.75 448.65 117.8 447.35 120.1 445.95 122.45 444.95 124.9
L 444.75 125.55
Q 444.45 125.35 444.2 125.2 443.95 125 443.75 124.8 443.3 124.4 442.85 124.05 442.5 123.65 442.25 123.2 441.55 122.1 441.2 120.9 440.9 119.6 440.9 118.3 440.95 116.6 441.6 114.7 442.25 112.8 443.25 110.95 443.85 109.7 444.65 108.55 445.45 107.4 446.2 106.4 446.65 105.7 447.1 105.15 447.55 104.5 448 104 449.5 102.25 451.3 100.45 453.15 98.7 454.75 97.25 456.25 96 457.9 94.8 459.55 93.5 461.3 92.45 462.65 91.65 463.95 90.75 465.35 89.9 466.75 89.15 468.9 87.95 471.1 86.9 473.3 85.8 475.65 85 478.05 84.15 480.85 83.5 481.6 83.3 482.35 83.1 486 82.3 489.25 81.9 490.95 81.75 492.6 81.75 494.3 81.7 495.85 81.85 497.95 82 499.95 82.35
M 653.8 124.25
L 653.45 124.25 652.5 125.2
Q 651.3 126.2 650 127.05 648.75 127.95 647.5 128.85 645.9 129.9 644.25 130.85 642.55 131.8 640.85 132.7 639.35 133.45 637.7 134.15 636 134.8 634.3 135.15 633.85 135.3 633.3 135.35 632.7 135.4 632.1 135.4 631.15 135.4 630.4 135.1 629.6 134.8 629.3 133.9 629.05 133.05 629.35 132.25 629.6 131.5 630.1 130.75 630.45 130.1 630.9 129.55 631.3 128.95 631.85 128.4
L 631.9 128.4
Q 631.9 128.35 631.95 128.35
L 638.1 126
Q 638.9 125.55 639.85 125.1 640.8 124.65 641.6 124.25 642.55 123.8 643.45 123.2 644.25 122.6 644.95 121.85 645.15 121.5 645.2 121.2 645.35 120.95 645.35 120.65 645.35 120.25 645.15 119.95 645.05 119.6 644.6 119.45 644.25 119.35 643.95 119.3 643.65 119.25 643.35 119.25 642.75 119.25 642.2 119.35 641.6 119.45 641.2 119.6 640.25 119.95 639.35 120.3 638.55 120.7 637.75 121.15 636.95 121.65 636.2 122.15 635.45 122.6 634.75 123.2 634.1 123.65 633.55 124.1 632.9 124.6 632.25 125.2 631.65 125.75 630.95 126.55 630.4 126.95 629.95 127.25 628.85 128.1 627.85 128.85 626.75 129.6 625.65 130.25
L 623.35 131.55
Q 622.9 131.75 622.5 132 621.95 132.2 621.55 132.4 621.2 132.45 620.85 132.55 620.45 132.65 620.2 132.65 619.55 132.55 619 132.4 618.45 132.2 618.25 131.95 617.95 131.5 617.8 130.9 617.7 130.35 617.7 129.85
L 617.95 124.35
Q 618.05 124 617.95 123.55 617.95 123.1 617.75 122.7 617.6 122.35 617.3 122.15 617 121.95 616.55 121.95 615.8 121.95 615.1 122.25 614.4 122.6 613.8 122.85 613.15 123.2 612.2 123.85 611.25 124.4 610.55 124.85 608.75 125.95 606.95 127.25 605.1 128.6 603.4 129.8 602.5 130.4 601.65 131.1 600.75 131.85 599.8 132.45
L 600.1 131.95
Q 601 130.75 601.9 129.6 602.75 128.4 603.5 127.2 604.4 126 605.25 124.8 606.05 123.55 606.8 122.25 607.2 121.65 607.5 120.95 607.8 120.25 607.8 119.5 607.8 119.35 607.65 119.05 607.5 118.65 607.25 118.75
L 607.3 118.85
Q 607.4 119 607.45 119.05 607.45 119.25 607.45 119.35 607.4 119.5 607.4 119.7 607.2 120 607 120.25 606.8 120.5 606.6 120.75 606.5 121.05 606.25 121.4 606.05 121.75 605.8 122 605.4 122.65 605.05 123.2 604.6 123.85 604.15 124.35 603.85 124.8 603.6 125.2
L 600.8 127.15
Q 599.8 127.85 598.8 128.5 597.75 129.2 596.65 129.85 594.6 131.05 592.45 132.05 590.25 133.05 588.8 133.5 588.35 133.65 587.8 133.75 587.15 133.9 586.7 133.9 586.3 133.9 585.85 133.75 585.4 133.65 585.1 133.4 584.55 132.65 585.1 131.5 585.6 130.4 586 129.7 586.6 128.7 587.35 127.7 588.1 126.75 588.95 125.85 589.3 125.45 589.7 125 590.15 124.55 590.5 124.1 590.8 123.65 591.15 123.2 591.45 122.75 591.75 122.35 591.9 122 592.1 121.85 592.3 121.55 592.4 121.3 592.45 121.25 592.6 121 592.8 120.75 592.8 120.7 592.7 120.35 592.3 120.65 591.75 120.75 591.5 120.9 591.25 120.95 590.9 121.05 590.55 121.15 590.25 121.25
L 589.45 121.85
Q 589 122.15 588.8 122.5 588.7 122.95 588.4 123.4 588.3 123.6 588.25 123.65 588.1 123.7 587.9 123.85 587.75 124 587.6 124.15 587.5 124.35 587.35 124.55 587.05 124.85 586.7 125.2
L 586.15 125.6
Q 585.65 126 585 126.55 584.4 127.05 583.8 127.5 582.8 128.2 581.45 129.15 580.15 130.05 579.05 130.65 578.05 131.35 576.85 132.05 575.65 132.75 574.5 133.4 573.5 133.95 572.55 134.35 571.7 134.7 570.5 135.1 569.65 135.4 568.9 135.6 568.2 135.8 567.55 135.8 566.8 135.8 566.25 135.6 565.6 135.4 565 134.7 564.6 134.4 564.4 133.85 564.25 133.2 564.25 132 564.3 131.6 564.35 131.25 564.35 130.8 564.4 130.25 564.6 129.2 565.05 128.25 565.5 127.3 566 126.4
L 566.05 126.4
Q 566.35 126.2 566.7 126 567.05 125.75 567.4 125.55
L 570.1 123.7
Q 571 123.05 572 122.35 573.05 121.55 573.95 120.95
L 583.55 113.25
Q 585.4 111.8 587.15 110.2 589 108.6 590.7 107
L 595.65 102.05
Q 596.25 101.4 596.75 100.8 597.25 100.2 597.85 99.6 598.4 98.75 599.05 98 599.6 97.3 600.1 96.5 601 95.3 601.55 94.3 602.15 93.25 602.65 92 602.85 91.45 603 90.85 603.15 90.25 603.15 89.75 603.15 89.5 603.25 89.35 603.35 89.15 603.35 88.9 603.35 88.35 603.15 87.7 602.95 87.15 602.6 86.7 602.05 86.15 601.4 85.95 600.75 85.75 600.05 85.75 599.4 85.75 598.55 86 597.65 86.2 597.15 86.4 596.75 86.5 596.4 86.7 596 86.9 595.65 87.1 594.6 87.6 593.65 88.2 592.65 88.9 591.7 89.65 590.9 90.35 590.05 91.05 589.25 91.7 588.4 92.45 587.55 93.4 586.6 94.3 585.65 95.15 584.75 96.1 583.3 97.7 582.05 99.2 580.8 100.75 579.45 102.25 578.25 103.9 577.3 105 576.3 106.2 575.35 107.35 574.4 108.55 573.3 110 572.4 111.35 571.6 112.4 570.8 113.55 570.05 114.8 568.6 117.1 567.2 119.45 565.95 121.7 565.05 123.85 563.95 126.55 563.45 128 563.05 129.45 562.9 130.3 562.85 131.1 562.85 131.7 562.85 132.4 562.9 132.95 562.95 133.5 563.15 134 563.65 135.4 564.8 136.05 565.85 136.6 567.05 136.6 568.65 136.6 569.9 136.15 571.2 135.75 572.4 135.15 572.95 134.9 574.1 134.45 575.15 133.9 577.05 132.75
L 580.45 130.55
Q 581.4 129.9 582.85 128.95 584.25 127.95 585.25 127.15
L 585.5 126.95 585.5 127
Q 585.25 127.45 585 127.75 584.7 128.35 584.5 128.8 584.25 129.3 584.15 129.8 583.75 130.75 583.5 131.8 583.3 132.9 583.8 133.85 584.4 134.65 585.35 134.8 586.2 134.95 587.05 134.8 587.8 134.7 588.55 134.45 589.3 134.25 589.95 133.95 590.8 133.6 591.7 133.2 592.6 132.8 593.4 132.4 595.1 131.55 596.65 130.55 598.15 129.6 599.65 128.6 600.5 128 601.3 127.45 601.65 127.25 601.95 127.05 600.8 128.4 599.75 129.8 599.3 130.35 598.8 130.85 598.3 131.35 597.85 131.95 597.45 132.5 597.2 132.9 596.9 133.2 596.55 133.85 596.4 134.1 596.2 134.45 596 134.8 596 135.2 596 135.4 596.15 135.6 596.25 135.8 596.4 136 596.5 136.05 596.65 136.1 596.85 136.15 596.95 136.15 597 136.15 597.1 136.05 597.25 135.9 597.4 135.85 597.6 135.65 597.65 135.65
L 597.85 135.4
Q 598.3 134.85 598.8 134.45 599.3 134.1 599.8 133.65 600.35 133.25 601 132.75 601.65 132.3 602.05 131.8
L 604.4 130.05
Q 605.6 129.1 606.95 128.1 608.25 127.05 609.55 126.2 610.6 125.55 611.75 124.8 612.8 124.1 613.95 123.45 614.45 123.2 615.15 122.95 615.8 122.75 616.35 122.7 616.6 122.7 616.75 122.85 616.85 123.05 616.9 123.3 617 123.45 616.9 123.85 616.85 124.15 616.85 124.35 616.6 125.3 616.35 126.25 616.1 127.15 615.9 128.2 615.85 128.6 615.8 129.15 615.7 129.8 615.7 130.15 615.7 130.85 615.7 131.55 615.7 132.2 615.95 132.8 616.15 133.2 616.5 133.5 616.8 133.85 617.25 133.95 617.7 134.15 618.2 134.15 618.7 134.15 619.15 134.1 619.75 133.95 620.7 133.65 621.6 133.35 622.35 132.9
L 626.2 130.65
Q 626.75 130.3 627.35 130 627.85 129.65 628.35 129.2 628.9 128.85 629.45 128.45 628.9 129.3 628.4 130.3 627.85 131.5 627.7 132.7 627.6 133.9 628.15 134.95 628.75 135.8 629.55 136.1 630.4 136.4 631.3 136.4 632.25 136.4 633.2 136.25 634.15 136.05 634.9 135.8 636.8 135.3 638.55 134.55 640.3 133.85 642 132.8 642.95 132.4 643.75 131.95 644.65 131.45 645.5 130.85 646.3 130.4 646.95 129.9 647.6 129.45 648.4 128.95 649.25 128.4 650.15 127.75 650.95 127.05 651.75 126.45 652.1 126.2 652.55 125.8 652.95 125.5 653.25 125.2 653.45 125.05 653.55 124.85 653.75 124.75 653.8 124.55 653.8 124.35 653.8 124.3
L 653.8 124.25
M 599.35 86.55
Q 599.85 86.45 600.3 86.4 601 86.45 601.4 86.65 601.8 86.9 602 87.35 602.2 87.7 602.3 88.15 602.45 88.6 602.45 88.85 602.4 89.9 601.95 91.25 601.5 92.55 600.95 93.45
L 599.9 95.25
Q 599.15 96.35 598.3 97.55 597.4 98.7 596.55 99.7 595.45 100.9 594.45 102.05 593.4 103.2 592.3 104.35 590 106.65 587.4 108.95 584.8 111.15 582.4 113.25 580.7 114.7 579.2 115.95 577.55 117.15 575.9 118.55 574.5 119.6 573.15 120.65 571.75 121.65 570.3 122.65 569.65 123.2 568.9 123.65 568.2 124.15 567.4 124.6 567.15 124.8 566.9 125 566.7 125.1 566.5 125.3 567.3 123.4 568.35 121.65 569.3 119.85 570.35 118.1 571.6 115.95 572.95 113.8 574.25 111.7 575.65 109.65
L 578.55 105.85
Q 579.25 105 579.95 104.15 580.7 103.3 581.35 102.45 583.1 100.3 584.7 98.4 586.2 96.45 588.05 94.7 588.8 93.95 589.55 93.2 590.3 92.4 591.15 91.55 592.15 90.7 593.25 89.9 594.3 89.15 595.35 88.45 596.05 87.9 596.85 87.5 597.5 87.15 598.4 86.9 598.8 86.7 599.35 86.55
M 639.6 121.95
Q 641 121.05 642.55 120.45 642.75 120.35 643.2 120.3 643.65 120.25 644 120.25 644.25 120.25 644.45 120.25 644.6 120.3 644.65 120.5 644.65 120.65 644.65 120.75 644.65 120.9 644.55 121.15 644.15 121.85 643.4 122.25 642.65 122.75 641.95 123.1 640.4 124 638.85 124.85 637.2 125.75 635.55 126.45 634.75 126.8 634 127.15 633.2 127.45 632.5 127.65 632.9 127.25 633.35 126.9 633.8 126.5 634.25 126.05 634.85 125.5 635.55 124.9 636.2 124.35 636.95 123.85 638.2 122.85 639.6 121.95 Z"/>
</g>
</defs>

<g transform="matrix( 1, 0, 0, 1, 0,0) ">
<use xlink:href="#Layer4_0_FILL"/>
</g>

<g transform="matrix( 1, 0, 0, 1, 0,0) ">
<use xlink:href="#Layer3_0_FILL"/>
</g>

<g transform="matrix( 1, 0, 0, 1, 0,0) ">
<use xlink:href="#Layer2_0_FILL"/>
</g>

<g transform="matrix( 1, 0, 0, 1, 0,0) ">
<use xlink:href="#Layer1_0_FILL"/>
</g>

<g transform="matrix( 1, 0, 0, 1, 0,0) ">
<use xlink:href="#Layer0_0_FILL"/>
</g>
</svg>
